HIERARCHY
ROOT Hips
{
	OFFSET 0.000000 0.000000 0.000000
	CHANNELS 6 Xposition Yposition Zposition Zrotation Yrotation Xrotation 
	JOINT LeftUpLeg_virtual
	{
		OFFSET 0.000000 0.000000 0.000000
		CHANNELS 3 Zrotation Yrotation Xrotation
		JOINT LeftUpLeg
		{
			OFFSET 10.205400 -3.823500 0.155100
			CHANNELS 3 Zrotation Yrotation Xrotation
			JOINT LeftLeg
			{
				OFFSET 0.708757 -12.982077 0.567790
				CHANNELS 3 Zrotation Yrotation Xrotation
				JOINT LeftFoot
				{
					OFFSET -0.708756 -10.717838 -2.184338
					CHANNELS 3 Zrotation Yrotation Xrotation
					JOINT LeftToeBase
					{
						OFFSET 0.108149 -7.191104 7.560241
						CHANNELS 3 Zrotation Yrotation Xrotation
						End Site
						{
							OFFSET 0.000000 0.000000 0.000000
						}
					}
				}
			}
		}
	}
	JOINT RightUpLeg_virtual
	{
		OFFSET 0.000000 0.000000 0.000000
		CHANNELS 3 Zrotation Yrotation Xrotation
		JOINT RightUpLeg
		{
			OFFSET -10.205400 -3.823500 0.005500
			CHANNELS 3 Zrotation Yrotation Xrotation
			JOINT RightLeg
			{
				OFFSET -0.708756 -12.982134 0.610632
				CHANNELS 3 Zrotation Yrotation Xrotation
				JOINT RightFoot
				{
					OFFSET 0.708754 -10.717769 -1.945823
					CHANNELS 3 Zrotation Yrotation Xrotation
					JOINT RightToeBase
					{
						OFFSET -0.108140 -7.191069 7.372968
						CHANNELS 3 Zrotation Yrotation Xrotation
						End Site
						{
							OFFSET 0.000000 0.000000 0.000000
						}
					}
				}
			}
		}
	}
	JOINT Spine_virtual
	{
		OFFSET 0.000000 0.000000 0.000000
		CHANNELS 3 Zrotation Yrotation Xrotation
		JOINT Spine
		{
			OFFSET 0.000000 6.876099 0.125700
			CHANNELS 3 Zrotation Yrotation Xrotation
			JOINT Spine1
			{
				OFFSET 0.000000 8.022060 0.146608
				CHANNELS 3 Zrotation Yrotation Xrotation
				JOINT Spine2
				{
					OFFSET 0.000000 9.168068 0.167552
					CHANNELS 3 Zrotation Yrotation Xrotation
					JOINT Neck_virtual
					{
						OFFSET 0.000000 0.000000 0.000000
						CHANNELS 3 Zrotation Yrotation Xrotation
						JOINT Neck
						{
							OFFSET 0.000000 10.314075 0.188496
							CHANNELS 3 Zrotation Yrotation Xrotation
							JOINT Head
							{
								OFFSET 0.000000 7.643700 -2.377400
								CHANNELS 3 Zrotation Yrotation Xrotation
								End Site
								{
									OFFSET 0.000000 0.000000 0.000000
								}
							}
						}
					}
					JOINT LeftShoulder_virtual
					{
						OFFSET 0.000000 0.000000 0.000000
						CHANNELS 3 Zrotation Yrotation Xrotation
						JOINT LeftShoulder
						{
							OFFSET 4.392200 8.824978 0.174984
							CHANNELS 3 Zrotation Yrotation Xrotation
							JOINT LeftArm
							{
								OFFSET 8.771219 -2.981674 -0.026999
								CHANNELS 3 Zrotation Yrotation Xrotation
								JOINT LeftForeArm
								{
									OFFSET 8.512804 0.000000 -0.000000
									CHANNELS 3 Zrotation Yrotation Xrotation
									JOINT LeftHand
									{
										OFFSET 18.484802 0.000000 -0.000000
										CHANNELS 3 Zrotation Yrotation Xrotation
										End Site
										{
											OFFSET 0.000000 0.000000 0.000000
										}
									}
								}
							}
						}
					}
					JOINT RightShoulder_virtual
					{
						OFFSET 0.000000 0.000000 0.000000
						CHANNELS 3 Zrotation Yrotation Xrotation
						JOINT RightShoulder
						{
							OFFSET -4.392200 8.824993 0.141379
							CHANNELS 3 Zrotation Yrotation Xrotation
							JOINT RightArm
							{
								OFFSET -8.771282 -2.981682 -0.094208
								CHANNELS 3 Zrotation Yrotation Xrotation
								JOINT RightForeArm
								{
									OFFSET -8.494598 0.000000 0.000000
									CHANNELS 3 Zrotation Yrotation Xrotation
									JOINT RightHand
									{
										OFFSET -18.483803 0.000000 0.000001
										CHANNELS 3 Zrotation Yrotation Xrotation
										End Site
										{
											OFFSET 0.000000 0.000000 0.000000
										}
									}
								}
							}
						}
					}
				}
			}
		}
	}
}
MOTION
Frames: 8
Frame Time: 0.033333
-18.570074 7.283039 28.708319 0.666012 85.019490 0.620961 3.117241 0.915662 -11.931122 -25.079601 35.666397 -99.980507 13.898766 -6.167084 116.582641 -11.036587 -16.821395 17.060143 0.000000 0.000000 0.000000 -0.026936 10.584238 -6.171113 48.431772 -16.936950 -95.088890 -14.459119 -5.553453 104.403492 -7.054701 29.434891 26.887911 0.000000 0.000000 0.000000 0.645470 9.764607 -6.122259 -0.464492 -4.372234 -8.432299 0.940442 -5.083806 7.813637 0.014904 -0.004111 -0.001475 -0.182323 -3.096116 16.739030 -0.482520 -16.811324 20.774401 0.000000 0.000000 0.000000 3.988668 -2.102894 9.743593 -17.043236 -21.157090 7.791620 -11.627288 -35.873868 -4.017884 -11.034184 -39.956357 5.917778 0.000000 0.000000 0.000000 -2.903296 -0.234755 10.215293 33.945275 5.828121 -13.830048 37.342222 10.942332 21.926365 2.577902 48.091386 4.644562 0.000000 0.000000 0.000000 
-18.700413 7.148277 28.618153 1.401861 84.311145 1.370220 3.159834 0.788350 -12.360149 -24.911570 35.791899 -100.031986 13.626028 -6.337104 117.128728 -10.938035 -16.801712 16.478653 0.000000 0.000000 0.000000 -0.077209 10.370203 -6.975386 48.088893 -16.972832 -94.705695 -14.934326 -5.889555 104.158875 -6.793563 29.720779 28.096482 0.000000 0.000000 0.000000 0.449927 9.667082 -6.881238 -0.640657 -4.282627 -8.457044 0.831330 -5.158368 7.876239 0.030958 0.001218 -0.003919 -0.273249 -3.201255 16.777554 -0.614020 -16.413867 21.319008 0.000000 0.000000 0.000000 3.850506 -2.230741 9.757905 -16.687254 -21.204952 7.792036 -10.260580 -36.403686 -4.970600 -11.043237 -38.066007 6.115746 0.000000 0.000000 0.000000 -2.979043 -0.345304 10.115189 34.740623 6.408937 -12.996771 36.820764 12.828802 21.436800 2.485776 46.986015 5.060948 0.000000 0.000000 0.000000 
-18.863476 7.022929 28.531750 1.606759 83.654982 1.496862 3.022331 0.696981 -12.783182 -24.909637 36.130867 -100.390721 13.484936 -6.333220 117.526614 -10.641677 -16.568241 16.325376 0.000000 0.000000 0.000000 -0.048035 10.257189 -7.775424 47.665739 -17.157186 -94.372901 -15.225499 -6.120430 104.089365 -6.208512 30.168802 28.988723 0.000000 0.000000 0.000000 0.297924 9.601776 -7.508544 -0.846929 -4.179318 -8.442370 0.793425 -5.253011 7.921069 -0.008046 0.009880 0.007568 -0.335807 -3.324297 16.777161 -0.830147 -15.931722 22.039897 0.000000 0.000000 0.000000 3.761096 -2.316881 9.665822 -16.573374 -21.138124 7.863218 -9.418599 -36.936403 -5.869337 -10.969841 -36.228488 6.329440 0.000000 0.000000 0.000000 -2.961303 -0.484025 10.054376 35.343900 6.897085 -12.348151 36.766973 14.445090 21.068005 2.583363 45.928412 5.587146 0.000000 0.000000 0.000000 
-19.044436 6.921934 28.454016 1.721388 83.213199 1.467218 2.470398 0.602751 -13.220401 -24.282251 36.540283 -100.617306 13.636695 -6.126194 117.334836 -10.670833 -16.572701 16.426304 0.000000 0.000000 0.000000 0.068460 10.182864 -8.271707 47.039185 -17.200465 -94.291656 -15.405661 -6.239650 103.908604 -5.586557 30.647776 29.905560 0.000000 0.000000 0.000000 0.167844 9.453118 -8.006740 -1.100062 -3.974520 -8.442923 0.746901 -5.303066 7.943811 0.003908 -0.076682 -0.020406 -0.360179 -3.474266 16.709499 -1.076478 -15.335178 22.777361 0.000000 0.000000 0.000000 3.757197 -2.409576 9.665640 -16.504363 -21.003814 7.835328 -9.280671 -37.426783 -6.531388 -10.890762 -34.627666 6.620938 0.000000 0.000000 0.000000 -2.975018 -0.675953 9.940164 35.712617 7.107601 -11.637182 37.241357 15.666707 20.844243 2.808761 45.244095 6.075681 0.000000 0.000000 0.000000 
-19.233166 6.845624 28.410069 0.914063 82.998485 0.720299 2.444221 0.352993 -13.331473 -23.566974 36.883360 -100.995425 13.679661 -5.957612 117.176676 -11.134845 -16.513174 17.111080 0.000000 0.000000 0.000000 0.122149 9.993897 -8.302588 45.910950 -16.813788 -94.380852 -15.514187 -6.224867 103.087007 -5.240745 31.063369 31.079458 0.000000 0.000000 0.000000 0.123549 9.517453 -8.521283 -1.428680 -3.841148 -8.533352 0.682606 -5.481919 7.899068 -0.049000 0.010717 -0.021517 -0.404934 -3.624753 16.641271 -1.353635 -14.588157 23.510763 0.000000 0.000000 0.000000 3.737132 -2.597227 9.583162 -16.562147 -20.727054 7.940070 -9.986913 -37.669675 -6.607020 -10.846029 -33.809068 7.006466 0.000000 0.000000 0.000000 -2.938816 -0.827950 9.833389 35.704657 7.034392 -10.959724 38.275427 16.258755 21.126981 2.914012 44.816932 6.309723 0.000000 0.000000 0.000000 
-19.426043 6.792372 28.393482 0.603822 82.983452 0.428210 2.481989 0.182268 -13.321719 -22.697943 37.415073 -101.422722 13.698030 -5.952527 117.517721 -11.948175 -16.407953 17.828114 0.000000 0.000000 0.000000 -0.002180 9.828762 -8.328489 44.884496 -16.459730 -94.677917 -15.378101 -5.705441 104.153616 -5.846501 31.436632 29.547603 0.000000 0.000000 0.000000 0.058635 9.435493 -8.850529 -1.851246 -3.560347 -8.584265 0.574266 -5.566102 7.846024 0.004831 -0.000544 -0.026068 -0.446013 -3.716585 16.485061 -1.587066 -14.103008 24.086000 0.000000 0.000000 0.000000 3.672016 -2.679298 9.539811 -16.541492 -20.300446 7.912299 -11.614365 -37.749547 -5.775596 -10.887228 -33.672071 7.414258 0.000000 0.000000 0.000000 -2.974085 -0.934080 9.743230 35.336687 6.710420 -10.408955 39.891617 16.197218 21.892508 3.093683 44.730421 6.350236 0.000000 0.000000 0.000000 
-19.618160 6.754199 28.401857 -0.163829 83.231114 -0.255624 2.658681 -0.056162 -13.501263 -22.027276 38.163962 -102.109265 13.266357 -6.211030 118.952908 -12.527514 -16.365881 17.713824 0.000000 0.000000 0.000000 -0.212591 9.541871 -8.349471 43.727404 -16.064759 -95.170353 -15.298657 -4.767919 106.876806 -6.797551 31.308180 27.054987 0.000000 0.000000 0.000000 0.066344 9.279391 -9.130307 -2.276424 -3.214027 -8.566535 0.486242 -5.647743 7.842057 0.011759 -0.042406 -0.016142 -0.542299 -3.779944 16.360467 -1.832476 -13.610305 24.560997 0.000000 0.000000 0.000000 3.614864 -2.717187 9.489489 -16.362613 -19.728390 8.038019 -13.906820 -37.700547 -3.741083 -10.803954 -34.244564 7.874059 0.000000 0.000000 0.000000 -3.064023 -0.934756 9.656585 34.672847 6.153556 -10.037303 42.063877 15.564150 22.953505 3.393352 44.904341 6.647191 0.000000 0.000000 0.000000 
-19.812891 6.733236 28.420143 0.148763 83.473279 0.097080 2.750877 -0.263144 -13.669582 -21.477817 38.907575 -102.849842 12.885971 -6.548805 120.962855 -12.859487 -16.276076 17.377704 0.000000 0.000000 0.000000 -0.418788 9.327134 -8.482539 42.706506 -15.924009 -95.889005 -14.939862 -3.716100 111.012929 -7.705349 31.108582 24.349250 0.000000 0.000000 0.000000 0.032688 9.118841 -9.229762 -2.726282 -2.769566 -8.471309 0.392858 -5.655523 7.870155 0.004166 -0.036871 -0.006197 -0.625122 -3.786218 16.244874 -2.039603 -13.341305 24.828672 0.000000 0.000000 0.000000 3.579497 -2.656180 9.503592 -15.993475 -19.052891 7.851477 -16.559993 -37.620853 -0.951233 -11.049111 -35.212555 8.436996 0.000000 0.000000 0.000000 -3.183082 -1.000073 9.684745 33.755420 5.593142 -9.666902 44.577523 14.637538 24.325780 3.415358 45.234352 6.443323 0.000000 0.000000 0.000000 
